
<svg id="Layer_2" data-name="Layer 2" xmlns="http://www.w3.org/2000/svg" viewBox="0 0 1677.58 482.8">
  <defs>
    <style>
      .cls-1 {
        fill: #fff;
        stroke-width: 0px;
      }
    </style>
  </defs>
  <g id="Layer_1-2" data-name="Layer 1">
    <g>
      <path class="cls-1" d="m342.44,474.66V0h68.49v474.66h-68.49Z"/>
      <path class="cls-1" d="m614.34,122.06c99.68,0,172.91,76.62,172.91,179.69v22.38h-281.41c9.49,56.28,56.28,98.32,114.6,98.32,40.01,0,73.91-16.27,99.68-50.86l49.5,36.62c-34.58,46.11-86.12,73.91-149.18,73.91-103.75,0-183.76-77.3-183.76-180.37,0-97.64,76.62-179.69,177.66-179.69Zm-107.14,147.82h210.88c-11.53-52.89-54.25-88.15-105.1-88.15s-93.58,35.26-105.78,88.15Z"/>
      <path class="cls-1" d="m958.81,189.86c-44.75,0-77.3,34.58-77.3,88.15v196.64h-68.49V128.84h67.81v42.72c16.95-27.8,44.75-45.43,82.73-45.43h23.73v63.74h-28.48Z"/>
      <path class="cls-1" d="m1162.92,482.8c-103.07,0-185.79-81.37-185.79-181.05s82.73-180.37,185.79-180.37,185.8,80.69,185.8,180.37-82.73,181.05-185.8,181.05Zm0-300.39c-65.1,0-117.31,52.89-117.31,119.34s52.21,120.02,117.31,120.02,117.31-52.89,117.31-120.02-52.21-119.34-117.31-119.34Z"/>
      <path class="cls-1" d="m1677.58,474.66h-68.49v-207.49c0-50.18-32.55-84.08-81.37-84.08s-84.76,34.58-84.76,86.12v205.46h-68.49V128.84h68.49v37.97c24.41-28.48,60.35-45.43,101.71-45.43,79.34,0,132.9,58.31,132.9,132.23v221.06Z"/>
    </g>
    <g>
      <polygon class="cls-1" points="170.11 345.95 170.2 345.82 180.4 359.87 265.26 474.66 342.43 474.66 207.49 294.97 332.26 128.84 256.32 128.84 171.56 245.47 86.12 128.84 9.61 128.84 170.11 345.95"/>
      <polygon class="cls-1" points="113.06 324.3 0 474.66 75.95 474.66 149.69 373.85 113.06 324.3"/>
    </g>
  </g>
</svg>